<svg xmlns="http://www.w3.org/2000/svg" width="1024" height="1024" fill="none" viewBox="0 0 1024 1024"><path fill="#000" d="M0 0h1024v1024H0z"/><path stroke="#fff" stroke-linecap="round" stroke-linejoin="round" stroke-width="60" d="M603.541 320.216a33.74 33.74 0 0 0 0 47.239l53.987 53.987a33.743 33.743 0 0 0 47.239 0L809.57 316.673c10.798-10.865 29.12-7.423 33.169 7.356a202.453 202.453 0 0 1-278.676 238.118l-266.901 266.9A71.566 71.566 0 1 1 195.97 727.821l266.9-266.9a202.46 202.46 0 0 1 30.528-214.985 202.46 202.46 0 0 1 94.534-62.031 202.46 202.46 0 0 1 113.056-1.661c14.779 4.049 18.221 22.337 7.39 33.202z"/></svg>